<?xml version="1.0" standalone="no"?>
<!DOCTYPE svg PUBLIC "-//W3C//DTD SVG 20010904//EN"
 "http://www.w3.org/TR/2001/REC-SVG-20010904/DTD/svg10.dtd">
<svg version="1.0" xmlns="http://www.w3.org/2000/svg"
 width="400.000000pt" height="400.000000pt" viewBox="0 0 400.000000 400.000000"
 preserveAspectRatio="xMidYMid meet">
<metadata>
Created by potrace 1.14, written by Peter Selinger 2001-2017
</metadata>
<g transform="translate(0.000000,400.000000) scale(0.100000,-0.100000)"
fill="#000000" stroke="none">
<path d="M1805 3989 c-217 -21 -482 -97 -682 -196 -1086 -535 -1453 -1892
-784 -2899 324 -488 833 -800 1435 -879 495 -66 1033 84 1451 404 82 62 244
220 320 311 195 234 354 566 414 865 105 526 -1 1064 -298 1511 -407 612
-1123 953 -1856 883z m610 -793 c24 -16 25 -19 25 -149 0 -72 -7 -492 -15
-932 -13 -656 -18 -803 -30 -814 -9 -9 -46 -15 -112 -18 -124 -5 -147 5 -151
64 l-3 42 -44 -34 c-77 -58 -145 -79 -265 -79 -90 -1 -111 3 -147 22 -105 55
-149 141 -163 317 -17 204 -30 697 -19 750 31 162 145 264 304 273 101 5 148
-7 230 -62 l65 -44 -7 321 c-7 361 -11 340 68 357 67 14 235 5 264 -14z m596
14 c30 -6 60 -18 67 -28 11 -14 12 -80 6 -342 l-7 -324 48 42 c71 62 140 85
245 80 101 -5 165 -33 223 -97 93 -104 100 -143 87 -564 -12 -389 -20 -467
-56 -548 -31 -68 -62 -100 -129 -131 -42 -19 -66 -23 -150 -22 -111 0 -166 16
-248 72 -25 18 -48 32 -51 32 -3 0 -6 -15 -6 -34 0 -18 -7 -39 -15 -46 -19
-15 -128 -25 -188 -16 -83 13 -75 -66 -92 846 -8 448 -15 866 -16 928 -2 128
3 140 68 152 57 11 154 11 214 0z m-2076 -584 c160 -34 260 -116 292 -239 11
-42 11 -95 2 -287 -9 -211 -12 -237 -30 -255 -18 -19 -35 -20 -299 -23 l-280
-3 0 -152 c0 -133 3 -156 20 -184 44 -73 210 -68 247 7 7 14 13 50 13 81 0 87
16 101 123 107 162 8 187 -6 187 -107 0 -93 -22 -151 -76 -201 -87 -80 -189
-105 -397 -98 -97 4 -149 11 -198 26 -112 37 -192 116 -218 217 -5 22 -17 218
-26 435 -14 356 -14 400 0 447 32 106 149 195 298 228 80 17 265 18 342 1z"/>
<path d="M1901 2398 c-13 -7 -33 -25 -44 -40 -19 -25 -22 -49 -28 -230 -4
-112 -8 -283 -8 -381 -1 -206 4 -223 77 -258 51 -25 109 -21 172 11 l40 20 0
119 c0 65 -3 253 -7 418 l-6 301 -38 21 c-48 27 -126 36 -158 19z"/>
<path d="M3133 2385 l-51 -26 -6 -102 c-3 -56 -8 -244 -11 -418 l-5 -315 38
-22 c75 -42 175 -38 219 10 43 47 45 75 34 448 -12 384 -16 406 -72 435 -41
22 -88 18 -146 -10z"/>
<path d="M724 2461 c-74 -19 -81 -42 -90 -279 l-7 -192 138 0 138 0 -7 192
c-8 199 -17 247 -53 266 -28 15 -85 21 -119 13z"/>
</g>
</svg>
